HIERARCHY
ROOT Torso
{
    OFFSET 0 0 0
    CHANNELS 6 Xposition Yposition Zposition Xrotation Yrotation Zrotation
    JOINT LHip 
    {   
        OFFSET 0 0 0
        CHANNELS 3 Xrotation Yrotation Zrotation
        JOINT LThigh
        {
            OFFSET 0.055 -0.055 -0.01
            CHANNELS 3 Xrotation Yrotation Zrotation
            JOINT LLeg
            {
                OFFSET 0 -0.160 0.015
                CHANNELS 3 Xrotation Yrotation Zrotation
                JOINT LFoot
                {
                    OFFSET 0 -0.16 -0.01
                    CHANNELS 3 Xrotation Yrotation Zrotation
                    JOINT LToes
                    {
                        OFFSET 0 0 0.09
                        CHANNELS 3 Xrotation Yrotation Zrotation
                        End Site
                        {
                            OFFSET 0 0 0
                        }
                    }
                }
            }
        }
    }
    JOINT RHip 
    {   
        OFFSET 0 0 0
        CHANNELS 3 Xrotation Yrotation Zrotation
        JOINT RThigh
        {
            OFFSET -0.055 -0.055 -0.01
            CHANNELS 3 Xrotation Yrotation Zrotation
            JOINT RLeg
            {
                OFFSET 0 -0.160 0.015
                CHANNELS 3 Xrotation Yrotation Zrotation
                JOINT RFoot
                {
                    OFFSET 0 -0.16 -0.01
                    CHANNELS 3 Xrotation Yrotation Zrotation
                    JOINT RToes
                    {
                        OFFSET 0 0 0.09
                        CHANNELS 3 Xrotation Yrotation Zrotation
                        End Site
                        {
                            OFFSET 0 0 0
                        }
                    }
                }
            }
        }
    }
    JOINT Neck
    {
        OFFSET 0 0.135 0
        CHANNELS 3 Xrotation Yrotation Zrotation
        JOINT Head
        {
            OFFSET 0 0.075 0
            CHANNELS 3 Xrotation Yrotation Zrotation
            End Site 
            {
                OFFSET 0 0 0
            }
        }
    }
    JOINT LUpperarm
    {
        OFFSET 0.098 0.15 0
        CHANNELS 3 Xrotation Yrotation Zrotation
        JOINT LLowerarm
        {
            OFFSET 0 0.009 0.09
            CHANNELS 3 Xrotation Yrotation Zrotation
            JOINT LHand
            {
                OFFSET 0 0 0.105
                CHANNELS 3 Xrotation Yrotation Zrotation
                End Site
                {
                    OFFSET 0 0 0
                }
            }
        }
    }
    JOINT RUpperarm
    {
        OFFSET -0.098 0.15 0
        CHANNELS 3 Xrotation Yrotation Zrotation
        JOINT RLowerarm
        {
            OFFSET 0 0.009 0.09
            CHANNELS 3 Xrotation Yrotation Zrotation
            JOINT RHand
            {
                OFFSET 0 0 0.105
                CHANNELS 3 Xrotation Yrotation Zrotation
                End Site
                {
                    OFFSET 0 0 0
                }
            }
        }
    }
}
MOTION
Frames: 22
Frame Time: 0.04
0 0 0 0 0 0 0 0 0 10.205591 0 -1.084001 21.781868 0 0 15.070468 0 6.45132 0 0 0 0 0 0 8.19943 0 5.586638 31.715671 0 0 16.045951 0 -1.72155 0 0 0 0 -0.400441 0 -5.35047 0 0 91.694563 4.626749 0 0 -9.914795 10.725489 0 0 0 92.468256 6.648423 0 0 2.960449 -9.321577 0 0 0
0 0 0 0 0 0 0 0 0 9.940936 0 -0.882109 22.83434 0 0 14.850957 0 6.672403 0 0 0 0 0 0 9.334512 0 6.046164 30.226989 0 0 15.052618 0 -1.668762 0 0 0 0 -0.327064 0 -5.360454 0 0 91.725572 4.600386 0 0 -9.980707 11.043998 0 0 0 93.005368 6.571856 0 0 3.410221 -9.912715 0 0 0
0 0 0 0 0 0 0 0 0 9.689858 0 -0.654159 23.875468 0 0 14.669986 0 6.878798 0 0 0 0 0 0 10.352708 0 6.500547 28.913632 0 0 13.94301 0 -1.60449 0 0 0 0 -0.256605 0 -5.365856 0 0 91.696573 4.540033 0 0 -10.008081 11.357683 0 0 0 93.622604 6.45061 0 0 4.036185 -10.60264 0 0 0
0 0 0 0 0 0 0 0 0 9.429053 0 -0.442628 24.927207 0 0 14.552577 0 7.048018 0 0 0 0 0 0 11.22667 0 6.897912 27.78407 0 0 12.799676 0 -1.539249 0 0 0 0 -0.193232 0 -5.360687 0 0 91.642858 4.474854 0 0 -10.037221 11.751298 0 0 0 94.194149 6.315041 0 0 4.694161 -11.341684 0 0 0
0 0 0 0 0 0 0 0 0 9.117064 0 -0.208256 26.053612 0 0 14.408687 0 7.195404 0 0 0 0 0 0 11.937453 0 7.242812 26.805851 0 0 11.745407 0 -1.441689 0 0 0 0 -0.128033 0 -5.345244 0 0 91.612409 4.409239 0 0 -10.104545 12.201792 0 0 0 94.696071 6.175947 0 0 5.305505 -12.068008 0 0 0
0 0 0 0 0 0 0 0 0 8.767038 0 0.065255 27.24236 0 0 14.231597 0 7.321496 0 0 0 0 0 0 12.49934 0 7.56485 25.986514 0 0 10.813223 0 -1.296236 0 0 0 0 -0.069525 0 -5.334813 0 0 91.53431 4.346735 0 0 -10.141991 12.688304 0 0 0 95.199298 6.010424 0 0 6.009127 -12.90635 0 0 0
0 0 0 0 0 0 0 0 0 8.329398 0 0.386444 28.538862 0 0 14.114808 0 7.443028 0 0 0 0 0 0 12.935413 0 7.871361 25.307566 0 0 10.166382 0 -1.071303 0 0 0 0 -0.017787 0 -5.312679 0 0 91.442661 4.260476 0 0 -10.182362 13.175624 0 0 0 95.570526 5.846021 0 0 6.615863 -13.665963 0 0 0
0 0 0 0 0 0 0 0 0 7.835652 0 0.704427 29.9306 0 0 14.048795 0 7.530004 0 0 0 0 0 0 13.256468 0 8.123214 24.774953 0 0 9.771327 0 -0.790799 0 0 0 0 0.061576 0 -5.302574 0 0 91.472626 4.221671 0 0 -10.411923 13.763699 0 0 0 95.740115 5.720898 0 0 7.002725 -14.222254 0 0 0
0 0 0 0 0 0 0 0 0 7.223143 0 1.064436 31.459494 0 0 14.191537 0 7.588099 0 0 0 0 0 0 13.44571 0 8.337549 24.361141 0 0 9.539422 0 -0.511333 0 0 0 0 0.136463 0 -5.279053 0 0 91.425349 4.132405 0 0 -10.574364 14.306691 0 0 0 95.896557 5.564871 0 0 7.440164 -14.789705 0 0 0
0 0 0 0 0 0 0 0 0 6.475583 0 1.486094 33.14834 0 0 14.650661 0 7.607367 0 0 0 0 0 0 13.555207 0 8.542384 24.013317 0 0 9.371882 0 -0.244752 0 0 0 0 0.215359 0 -5.268686 0 0 91.349773 4.034202 0 0 -10.725572 14.811193 0 0 0 95.972753 5.41961 0 0 7.846069 -15.322291 0 0 0
0 0 0 0 0 0 0 0 0 5.546713 0 1.944477 35.065098 0 0 15.454303 0 7.590962 0 0 0 0 0 0 13.605331 0 8.6915 23.634392 0 0 9.338925 0 -0.084737 0 0 0 0 0.301537 0 -5.228959 0 0 91.216325 3.903447 0 0 -10.81761 15.277503 0 0 0 95.966714 5.310689 0 0 8.202398 -15.757568 0 0 0
0 0 0 0 0 0 0 0 0 4.443295 0 2.48222 37.215992 0 0 16.570634 0 7.515094 0 0 0 0 0 0 13.598031 0 8.833267 23.179975 0 0 9.493882 0 0.015024 0 0 0 0 0.394664 0 -5.190117 0 0 91.085283 3.797044 0 0 -10.978141 15.788596 0 0 0 95.926787 5.181356 0 0 8.627095 -16.284814 0 0 0
0 0 0 0 0 0 0 0 0 3.12153 0 3.100536 39.581304 0 0 17.968159 0 7.416196 0 0 0 0 0 0 13.55631 0 8.95242 22.621098 0 0 9.775522 0 0.08857 0 0 0 0 0.500093 0 -5.162255 0 0 90.896008 3.669699 0 0 -11.12188 16.300953 0 0 0 95.815005 5.06054 0 0 9.059476 -16.824438 0 0 0
0 0 0 0 0 0 0 0 0 1.649207 0 3.808117 42.10466 0 0 19.541712 0 7.294274 0 0 0 0 0 0 13.511009 0 9.085067 21.967572 0 0 10.173811 0 0.175749 0 0 0 0 0.596482 0 -5.129803 0 0 90.658155 3.549452 0 0 -11.232236 16.82396 0 0 0 95.688741 4.948177 0 0 9.53675 -17.445497 0 0 0
0 0 0 0 0 0 0 0 0 0.061546 0 4.575373 44.726569 0 0 21.421767 0 7.114641 0 0 0 0 0 0 13.467491 0 9.221053 21.248839 0 0 10.622311 0 0.317666 0 0 0 0 0.690642 0 -5.107074 0 0 90.403655 3.438285 0 0 -11.338661 17.362214 0 0 0 95.548322 4.809058 0 0 10.051288 -18.161719 0 0 0
0 0 0 0 0 0 0 0 0 -1.632147 0 5.379226 47.407323 0 0 23.57941 0 6.851072 0 0 0 0 0 0 13.400117 0 9.339766 20.576252 0 0 11.050074 0 0.487083 0 0 0 0 0.790937 0 -5.061393 0 0 90.166248 3.304248 0 0 -11.478446 17.918128 0 0 0 95.36214 4.649848 0 0 10.596712 -18.898597 0 0 0
0 0 0 0 0 0 0 0 0 -3.377116 0 6.217208 50.105508 0 0 25.785431 0 6.538252 0 0 0 0 0 0 13.304164 0 9.442043 19.966717 0 0 11.445954 0 0.649019 0 0 0 0 0.877845 0 -5.020224 0 0 89.887273 3.164553 0 0 -11.548269 18.440392 0 0 0 95.163598 4.491301 0 0 11.148862 -19.663106 0 0 0
0 0 0 0 0 0 0 0 0 -5.152438 0 7.041518 52.836566 0 0 27.84452 0 6.180197 0 0 0 0 0 0 13.154838 0 9.51196 19.473295 0 0 11.806915 0 0.772575 0 0 0 0 0.964022 0 -5.002141 0 0 89.544309 2.995534 0 0 -11.496979 18.923647 0 0 0 94.977442 4.334837 0 0 11.712142 -20.454876 0 0 0
0 0 0 0 0 0 0 0 0 -6.940262 0 7.882978 55.562444 0 0 29.77173 0 5.833884 0 0 0 0 0 0 12.965231 0 9.575239 19.064037 0 0 12.11236 0 0.859239 0 0 0 0 1.044759 0 -4.989593 0 0 89.233521 2.838432 0 0 -11.469252 19.405239 0 0 0 94.760457 4.148341 0 0 12.291985 -21.245549 0 0 0
0 0 0 0 0 0 0 0 0 -8.702863 0 8.709587 58.252377 0 0 31.597391 0 5.532474 0 0 0 0 0 0 12.795622 0 9.618868 18.728171 0 0 12.373853 0 0.907558 0 0 0 0 1.117512 0 -4.985854 0 0 88.977671 2.732807 0 0 -11.452004 19.918893 0 0 0 94.555209 3.945496 0 0 12.880443 -22.064477 0 0 0
0 0 0 0 0 0 0 0 0 -10.426377 0 9.518941 60.882861 0 0 33.255457 0 5.275775 0 0 0 0 0 0 12.651564 0 9.662765 18.365365 0 0 12.633231 0 0.968771 0 0 0 0 1.184062 0 -4.973508 0 0 88.711444 2.625343 0 0 -11.357143 20.378241 0 0 0 94.326693 3.740913 0 0 13.445352 -22.802491 0 0 0
0 0 0 0 0 0 0 0 0 -12.072008 0 10.284005 63.412065 0 0 34.738785 0 5.124695 0 0 0 0 0 0 12.565383 0 9.702903 17.976392 0 0 12.891345 0 0.994529 0 0 0 0 1.242477 0 -4.97392 0 0 88.437283 2.532246 0 0 -11.179053 20.819007 0 0 0 94.120316 3.531102 0 0 13.995079 -23.528105 0 0 0
